# xmcd
#
# Track frame offsets: 
#        150
#        21005
#        42475
#        62235
#        82655
#        105047
#        126367
#        144442
#        162670
#        180195
#        201610
#        225152
#        238432
#        267892
#        290250
#
# Disc length: 4138 seconds
#
# Revision: 0
# Processed by: cddbd v1.5.1PL2 Copyright (c) Steve Scherf et al.
# Submitted via: ExactAudioCopy v0.95b4
#
DISCID=c910280f
DTITLE=Carl Weathersby - Best of Carl Weathersby
DYEAR=2003
DGENRE=Blues
TTITLE0=Come to Papa
TTITLE1=Restless Feeling
TTITLE2=Do You Call That a Buddy
TTITLE3=Don't Lay Your Blues on Me
TTITLE4=Feels Like Rain
TTITLE5=Sweet Music
TTITLE6=Your Love Is Everything
TTITLE7=Wheel of Fortune
TTITLE8=Everything I Do
TTITLE9=It's You That I Want
TTITLE10=All Your Affection Is Gone
TTITLE11=Stop Breakin' Down Blues
TTITLE12=Somebody Help Me
TTITLE13=My Baby
TTITLE14=Hipshakin' Woman
EXTD=
EXTT0=
EXTT1=
EXTT2=
EXTT3=
EXTT4=
EXTT5=
EXTT6=
EXTT7=
EXTT8=
EXTT9=
EXTT10=
EXTT11=
EXTT12=
EXTT13=
EXTT14=
PLAYORDER=
